<svg xmlns="http://www.w3.org/2000/svg" xmlns:xlink="http://www.w3.org/1999/xlink" width="1080" zoomAndPan="magnify" viewBox="0 0 810 809.999993" height="1080" preserveAspectRatio="xMidYMid meet" version="1.0"><defs><clipPath id="b4c5f988c9"><path d="M 147.382812 168.578125 L 662.617188 168.578125 L 662.617188 683.808594 L 147.382812 683.808594 Z M 147.382812 168.578125 " clip-rule="nonzero"/></clipPath><clipPath id="0a343dee83"><path d="M 405 168.578125 C 262.722656 168.578125 147.382812 283.917969 147.382812 426.195312 C 147.382812 568.472656 262.722656 683.808594 405 683.808594 C 547.277344 683.808594 662.617188 568.472656 662.617188 426.195312 C 662.617188 283.917969 547.277344 168.578125 405 168.578125 " clip-rule="nonzero"/></clipPath><clipPath id="46edb647da"><path d="M 211.039062 322.703125 L 432.289062 322.703125 L 432.289062 529.703125 L 211.039062 529.703125 Z M 211.039062 322.703125 " clip-rule="nonzero"/></clipPath><clipPath id="771fd71191"><path d="M 444 310 L 597.375 310 L 597.375 527 L 444 527 Z M 444 310 " clip-rule="nonzero"/></clipPath><clipPath id="6a91028fb8"><path d="M 481 300.664062 L 557 300.664062 L 557 485 L 481 485 Z M 481 300.664062 " clip-rule="nonzero"/></clipPath><clipPath id="39a42893af"><path d="M 405 363 L 578 363 L 578 551.914062 L 405 551.914062 Z M 405 363 " clip-rule="nonzero"/></clipPath></defs><rect x="-81" width="972" fill="#ffffff" y="-80.999999" height="971.999992" fill-opacity="1"/><rect x="-81" width="972" fill="#ffffff" y="-80.999999" height="971.999992" fill-opacity="1"/><rect x="-81" width="972" fill="#ffffff" y="-80.999999" height="971.999992" fill-opacity="1"/><g clip-path="url(#b4c5f988c9)"><g clip-path="url(#0a343dee83)"><path fill="#c7b198" d="M 147.382812 168.578125 L 662.617188 168.578125 L 662.617188 683.808594 L 147.382812 683.808594 Z M 147.382812 168.578125 " fill-opacity="1" fill-rule="nonzero"/></g></g><g clip-path="url(#46edb647da)"><path fill="#322c4d" d="M 267.921875 497.828125 C 250.398438 489.679688 238.207031 471.894531 238.207031 451.414062 L 238.207031 349.820312 L 275.582031 349.820312 L 275.582031 451.414062 C 275.582031 494.457031 310.824219 529.703125 353.921875 529.703125 C 396.996094 529.703125 432.261719 494.457031 432.261719 451.414062 L 432.261719 322.703125 L 340.613281 322.703125 L 340.613281 451.414062 C 340.613281 460.378906 338.28125 468.824219 334.167969 476.179688 C 339.597656 480.515625 346.484375 483.140625 353.921875 483.140625 C 356.472656 483.140625 358.976562 482.820312 361.382812 482.222656 C 365.46875 472.761719 367.75 462.335938 367.75 451.414062 L 367.75 349.820312 L 405.125 349.820312 L 405.125 451.414062 C 405.125 479.550781 382.074219 502.582031 353.921875 502.582031 C 325.765625 502.582031 302.71875 479.550781 302.71875 451.414062 L 302.71875 322.703125 L 211.070312 322.703125 L 211.070312 451.414062 C 211.070312 494.457031 246.3125 529.703125 289.410156 529.703125 C 291.367188 529.703125 293.300781 529.628906 295.234375 529.480469 C 284.007812 521.035156 274.664062 510.234375 267.921875 497.828125 Z M 267.921875 497.828125 " fill-opacity="1" fill-rule="evenodd"/></g><g clip-path="url(#771fd71191)"><path fill="#322c4d" d="M 567.074219 450.640625 L 567.074219 310.113281 L 597.316406 335.996094 L 597.316406 450.640625 C 597.316406 492.554688 562.996094 526.832031 521.035156 526.832031 C 479.074219 526.832031 444.753906 492.554688 444.753906 450.640625 L 444.753906 370.636719 L 474.996094 396.515625 L 474.996094 450.640625 C 474.996094 475.941406 495.703125 496.625 521.035156 496.625 C 546.363281 496.625 567.074219 475.941406 567.074219 450.640625 Z M 567.074219 450.640625 " fill-opacity="1" fill-rule="evenodd"/></g><g clip-path="url(#6a91028fb8)"><path fill="#322c4d" d="M 556.226562 380.597656 L 556.226562 443.734375 C 556.226562 466.234375 545.054688 484.011719 521.035156 484.011719 C 500.871094 484.011719 484.023438 469.144531 481 449.84375 C 483.660156 459.511719 492.574219 466.636719 503.09375 466.636719 C 515.683594 466.636719 525.984375 456.347656 525.984375 443.734375 L 525.984375 326.398438 L 556.046875 300.664062 L 556.226562 300.808594 Z M 556.226562 380.597656 " fill-opacity="1" fill-rule="evenodd"/></g><g clip-path="url(#39a42893af)"><path fill="#322c4d" d="M 434.925781 363.984375 L 434.925781 455.765625 C 434.925781 500.839844 473.359375 537.734375 520.378906 537.734375 C 542.179688 537.734375 562.121094 529.8125 577.261719 516.796875 C 559.320312 538.207031 532.351562 551.914062 502.363281 551.914062 C 448.648438 551.914062 404.683594 508 404.683594 454.347656 L 404.683594 389.863281 Z M 434.925781 363.984375 " fill-opacity="1" fill-rule="evenodd"/></g></svg>